PathFileType	4	(X/Y/Z)	C:/Users/opensim2020/Desktop/walking_exp_matlab/subject01_walking05_straight_04.trc	
DataRate	CameraRate	NumFrames	NumMarkers	Units	OrigDataRate	OrigDataStartFrame	OrigNumFrames	
100.00	100.00	5	43	mm	100.00	3022	283	
Frame#	Time	LFHD			RFHD			LBHD			RBHD			C7			T10			CLAV			STRN			RBAK			LSHO			LUPA			LELB			LFRM			LWRA			LWRB			LFIN			RSHO			RUPA			RELB			RFRM			RWRA			RWRB			RFIN			LASI			RASI			LPSI			RPSI			LTHI			LKNE			LTIB			LANK			LHEE			LTOE			RTHI			RKNE			RTIB			RANK			RHEE			RTOE			*39			*40			*41			*42			
		X1	Y1	Z1	X2	Y2	Z2	X3	Y3	Z3	X4	Y4	Z4	X5	Y5	Z5	X6	Y6	Z6	X7	Y7	Z7	X8	Y8	Z8	X9	Y9	Z9	X10	Y10	Z10	X11	Y11	Z11	X12	Y12	Z12	X13	Y13	Z13	X14	Y14	Z14	X15	Y15	Z15	X16	Y16	Z16	X17	Y17	Z17	X18	Y18	Z18	X19	Y19	Z19	X20	Y20	Z20	X21	Y21	Z21	X22	Y22	Z22	X23	Y23	Z23	X24	Y24	Z24	X25	Y25	Z25	X26	Y26	Z26	X27	Y27	Z27	X28	Y28	Z28	X29	Y29	Z29	X30	Y30	Z30	X31	Y31	Z31	X32	Y32	Z32	X33	Y33	Z33	X34	Y34	Z34	X35	Y35	Z35	X36	Y36	Z36	X37	Y37	Z37	X38	Y38	Z38	X39	Y39	Z39	X40	Y40	Z40	X41	Y41	Z41	X42	Y42	Z42	X43	Y43	Z43	

248	2.470	1491.94006	-882.38171	1657.32092	1377.40649	-891.84326	1657.72046	1490.46924	-768.72290	1604.91528	1368.95349	-775.59869	1604.57751	1454.28723	-740.00110	1408.28528	1448.37659	-714.15979	1115.76465	1450.70703	-888.18762	1346.86963	1464.52209	-936.25964	1194.10242	1383.98206	-692.45538	1209.26367	1612.02710	-828.08313	1383.65015	1709.19629	-828.14441	1205.45923	1726.60632	-857.88635	1055.04541	1748.75549	-962.93164	1002.03259	1729.29651	-1099.20361	982.13324	1751.20923	-1065.64880	937.58356	1764.36829	-1148.13538	926.95447	1300.44653	-817.44464	1367.94092	1215.31201	-731.43622	1172.54004	1219.27136	-714.07092	1050.33167	1191.16406	-714.96649	929.64990	1207.15137	-770.42352	798.02118	1172.50671	-724.68500	808.16278	1177.59302	-740.98010	722.68994	1572.88477	-882.11707	914.08258	1355.76196	-902.99579	913.58844	1496.59717	-701.97766	925.19232	1352.69971	-717.38727	919.52155	1619.66077	-782.47943	589.13776	1604.77563	-739.05133	457.67813	1611.44580	-622.91626	305.42746	1558.89819	-514.69849	111.53407	1506.58276	-462.84113	103.06612	1553.93884	-639.86230	28.99300	1296.63794	-924.79596	587.41406	1327.96106	-978.69873	442.47256	1330.44031	-975.18976	266.98404	1378.05981	-1023.69977	67.87576	1435.79407	-993.75806	24.59263	1356.00232	-1165.03857	56.20777	1398.98120	-877.75488	1691.07886	-3101.84717	1973.17175	1023.39783	-3140.66797	2012.62842	1022.04016			 
249	2.480	1488.65173	-891.31012	1657.96130	1374.19604	-900.75922	1658.26563	1487.34375	-777.91296	1605.12585	1365.86584	-784.77350	1604.65002	1451.30798	-749.66901	1408.23608	1446.65710	-724.91315	1115.73328	1448.04163	-898.07721	1347.13147	1462.18872	-946.42786	1194.44360	1381.84998	-702.76166	1208.73132	1609.42139	-837.88330	1383.87329	1706.57129	-837.63068	1205.48633	1724.09363	-866.26733	1054.78918	1746.04541	-971.35309	1001.69366	1726.23413	-1107.56384	981.99426	1748.24121	-1074.18335	937.33496	1760.98328	-1156.75330	926.83521	1297.57385	-827.28192	1367.14685	1212.85681	-742.25897	1171.03271	1217.18164	-725.14172	1048.74878	1189.27795	-726.23395	927.97766	1205.60913	-781.85101	796.45697	1170.91516	-736.18304	806.44476	1176.08545	-752.51569	721.18835	1571.39404	-893.72473	913.61212	1354.41504	-914.36499	913.62720	1495.28809	-713.23480	924.58704	1350.93628	-728.66937	919.28741	1618.66248	-794.70056	588.35663	1604.33081	-751.34259	456.80054	1611.70959	-631.80560	307.19022	1560.40857	-518.61334	116.11388	1508.27246	-466.64178	109.70354	1554.06592	-640.19275	28.81945	1295.79712	-935.86389	588.59625	1326.83887	-989.94659	443.95334	1328.67773	-984.14240	268.36230	1376.92493	-1027.38770	67.80220	1434.86890	-995.22388	25.98350	1356.80688	-1168.49194	51.02062	1395.73474	-886.36212	1691.48975	-3101.87158	1973.16064	1023.20465	-3140.60205	2012.56104	1021.93787			 
250	2.490	1485.44617	-900.36462	1658.77246	1371.03674	-909.86993	1658.88684	1484.14417	-787.09619	1605.75952	1362.65161	-794.06982	1605.04700	1448.48328	-759.72913	1408.74097	1445.18042	-735.56439	1115.91406	1445.28503	-907.88837	1347.75269	1459.73181	-956.69977	1195.20056	1379.55347	-712.73145	1208.75171	1606.90308	-847.76691	1384.49048	1703.77380	-847.02350	1205.88220	1721.42651	-874.49115	1054.82080	1743.20923	-979.46509	1001.33929	1723.08936	-1115.52722	981.33167	1745.24292	-1082.17322	936.76038	1757.58972	-1164.84998	926.18774	1294.76453	-837.05951	1366.60791	1210.54285	-753.32874	1169.69629	1214.94983	-736.59229	1047.32397	1187.31726	-737.82739	926.45953	1204.03882	-793.54297	795.08521	1169.24170	-747.97620	804.96301	1174.43323	-764.43451	719.92761	1569.47949	-905.35480	913.59039	1353.00488	-925.70459	914.12189	1494.34668	-724.51013	924.22229	1349.69324	-739.72583	919.98376	1617.54846	-807.66504	587.83911	1604.00208	-764.59332	456.20227	1612.12561	-641.58319	309.52597	1561.77771	-523.12891	121.35250	1509.66357	-471.36603	117.05325	1554.35205	-640.66107	28.97519	1294.23071	-946.94861	590.04083	1325.38062	-1001.20679	445.75912	1326.22437	-993.13202	269.94128	1375.62781	-1030.36609	67.77164	1433.46216	-996.44031	27.14373	1358.26526	-1171.66089	45.81301	1392.50916	-895.29828	1692.33545	-3101.95337	1973.10339	1023.45190	-3140.58179	2012.60352	1022.10907			 
251	2.500	1482.36438	-909.47998	1659.52148	1367.94116	-919.05267	1659.62598	1480.94031	-796.27893	1606.34363	1359.48938	-803.40594	1605.63745	1445.71167	-769.92859	1409.53540	1443.70581	-746.16272	1116.16235	1442.55969	-917.64325	1348.55017	1457.24854	-967.12549	1196.23376	1377.28540	-722.70496	1209.13110	1604.34216	-857.84985	1385.34607	1700.93982	-856.31604	1206.56958	1718.66919	-882.73645	1055.26587	1740.30615	-987.28156	1000.96100	1719.92163	-1123.09814	980.20654	1742.09204	-1089.63684	935.75818	1754.11267	-1172.30872	924.86194	1291.99377	-846.67487	1366.48120	1208.13684	-764.47180	1168.86511	1212.86682	-748.23602	1046.38220	1185.34558	-749.78802	925.41345	1202.28662	-805.67432	794.24811	1167.39282	-760.16254	803.93274	1172.56824	-776.62921	719.05518	1567.84302	-916.85730	913.73254	1351.50964	-936.92340	915.30927	1493.60327	-735.97833	924.21973	1348.83154	-750.52942	921.40747	1616.50537	-821.40765	587.57672	1604.03198	-778.95508	455.78531	1612.72668	-652.10211	312.29117	1563.21313	-528.49695	127.14552	1510.75793	-477.25122	125.11769	1554.59680	-641.17938	29.14582	1292.33301	-958.34473	591.22986	1324.08093	-1011.79382	446.62534	1324.13037	-1001.92926	271.18219	1374.50073	-1033.20776	67.44093	1432.19861	-997.53925	28.13393	1359.82495	-1174.25037	40.99728	1389.23767	-904.56543	1693.21436	-3101.94873	1973.11609	1023.42505	-3140.71558	2012.52905	1021.99860			 
252	2.510	1479.26392	-918.54163	1660.32202	1364.85815	-928.25391	1660.46948	1477.81274	-805.50348	1606.94348	1356.40039	-812.61444	1606.28442	1443.14343	-779.93170	1410.32043	1442.27173	-756.59052	1116.55542	1439.81616	-927.44751	1349.46411	1454.78418	-977.64301	1197.45361	1375.16138	-732.62634	1209.60229	1601.72388	-867.97833	1386.38049	1698.13477	-865.34564	1207.51172	1715.96240	-890.70441	1056.11365	1737.35046	-994.81006	1000.63354	1716.66284	-1130.30347	978.66180	1738.89893	-1096.53430	934.39282	1750.72351	-1179.28699	923.00195	1289.53870	-856.11664	1366.63892	1205.84766	-775.48047	1168.36743	1210.81201	-759.91840	1045.80115	1183.48218	-761.88690	924.85315	1200.50745	-817.75525	793.63458	1165.37854	-772.41937	803.32764	1170.66675	-789.23590	718.63965	1565.63989	-928.41663	914.19202	1349.76465	-948.04407	916.82843	1493.05322	-747.49335	924.72858	1348.13928	-761.39240	923.21429	1615.75854	-835.86664	587.47284	1604.61206	-794.09576	455.65985	1613.37012	-663.28802	315.48035	1564.61047	-534.91583	133.33972	1511.67456	-484.49579	133.77559	1554.78967	-641.87933	29.19616	1290.31372	-969.48389	592.44275	1322.55920	-1021.88043	447.12424	1321.85217	-1009.84802	271.13763	1373.75330	-1035.97217	67.27250	1431.28247	-998.67047	28.75376	1360.27405	-1176.49597	37.88092	1386.09412	-913.93542	1694.07031	-3101.90723	1973.18774	1023.26788	-3140.52808	2012.56470	1022.01563			 
